<svg xmlns="http://www.w3.org/2000/svg" viewBox="0 0 1000 750" preserveAspectRatio="xMidYMid slice"><defs><linearGradient id="sky" x2="0" y2="1"><stop stop-color="#101b42"/><stop offset="1" stop-color="#374572"/></linearGradient><radialGradient id="glow"><stop stop-color="#b3b8ff" stop-opacity=".55"/><stop offset="1" stop-color="#b3b8ff" stop-opacity="0"/></radialGradient><filter id="shadow"><feDropShadow dx="0" dy="12" stdDeviation="9" flood-opacity=".35"/></filter></defs><rect width="1000" height="750" fill="url(#sky)"/><ellipse cx="750" cy="110" rx="270" ry="220" fill="url(#glow)"/><circle cx="286" cy="62" r="2" fill="#e0e3ff" opacity=".7"/><circle cx="491" cy="288" r="1" fill="#e0e3ff" opacity=".7"/><circle cx="472" cy="152" r="2" fill="#e0e3ff" opacity=".7"/><circle cx="75" cy="249" r="1" fill="#e0e3ff" opacity=".7"/><circle cx="530" cy="256" r="1" fill="#e0e3ff" opacity=".7"/><circle cx="461" cy="56" r="1" fill="#e0e3ff" opacity=".7"/><circle cx="261" cy="210" r="1" fill="#e0e3ff" opacity=".7"/><circle cx="425" cy="180" r="2" fill="#e0e3ff" opacity=".7"/><circle cx="432" cy="255" r="2" fill="#e0e3ff" opacity=".7"/><circle cx="443" cy="92" r="1" fill="#e0e3ff" opacity=".7"/><circle cx="959" cy="135" r="2" fill="#e0e3ff" opacity=".7"/><circle cx="609" cy="103" r="2" fill="#e0e3ff" opacity=".7"/><circle cx="876" cy="46" r="1" fill="#e0e3ff" opacity=".7"/><circle cx="733" cy="178" r="1" fill="#e0e3ff" opacity=".7"/><circle cx="973" cy="66" r="1" fill="#e0e3ff" opacity=".7"/><circle cx="24" cy="111" r="1" fill="#e0e3ff" opacity=".7"/><circle cx="951" cy="140" r="2" fill="#e0e3ff" opacity=".7"/><circle cx="50" cy="121" r="2" fill="#e0e3ff" opacity=".7"/><circle cx="174" cy="314" r="1" fill="#e0e3ff" opacity=".7"/><circle cx="86" cy="42" r="2" fill="#e0e3ff" opacity=".7"/><circle cx="83" cy="333" r="1" fill="#e0e3ff" opacity=".7"/><circle cx="135" cy="284" r="1" fill="#e0e3ff" opacity=".7"/><circle cx="449" cy="236" r="1" fill="#e0e3ff" opacity=".7"/><circle cx="834" cy="362" r="2" fill="#e0e3ff" opacity=".7"/><circle cx="247" cy="179" r="1" fill="#e0e3ff" opacity=".7"/><circle cx="207" cy="28" r="1" fill="#e0e3ff" opacity=".7"/><circle cx="111" cy="219" r="1" fill="#e0e3ff" opacity=".7"/><circle cx="863" cy="30" r="2" fill="#e0e3ff" opacity=".7"/><circle cx="736" cy="45" r="1" fill="#e0e3ff" opacity=".7"/><circle cx="420" cy="85" r="1" fill="#e0e3ff" opacity=".7"/><circle cx="798" cy="250" r="1" fill="#e0e3ff" opacity=".7"/><circle cx="139" cy="123" r="1" fill="#e0e3ff" opacity=".7"/><circle cx="832" cy="280" r="1" fill="#e0e3ff" opacity=".7"/><circle cx="876" cy="197" r="1" fill="#e0e3ff" opacity=".7"/><circle cx="265" cy="364" r="1" fill="#e0e3ff" opacity=".7"/><circle cx="82" cy="250" r="1" fill="#e0e3ff" opacity=".7"/><circle cx="767" cy="48" r="1" fill="#e0e3ff" opacity=".7"/><circle cx="955" cy="324" r="1" fill="#e0e3ff" opacity=".7"/><circle cx="547" cy="239" r="2" fill="#e0e3ff" opacity=".7"/><circle cx="92" cy="328" r="1" fill="#e0e3ff" opacity=".7"/><circle cx="331" cy="23" r="1" fill="#e0e3ff" opacity=".7"/><circle cx="112" cy="24" r="2" fill="#e0e3ff" opacity=".7"/><circle cx="297" cy="101" r="2" fill="#e0e3ff" opacity=".7"/><circle cx="954" cy="69" r="1" fill="#e0e3ff" opacity=".7"/><circle cx="27" cy="348" r="2" fill="#e0e3ff" opacity=".7"/><circle cx="604" cy="316" r="1" fill="#e0e3ff" opacity=".7"/><circle cx="604" cy="333" r="2" fill="#e0e3ff" opacity=".7"/><circle cx="690" cy="79" r="1" fill="#e0e3ff" opacity=".7"/><circle cx="905" cy="105" r="1" fill="#e0e3ff" opacity=".7"/><circle cx="541" cy="122" r="2" fill="#e0e3ff" opacity=".7"/><circle cx="392" cy="68" r="1" fill="#e0e3ff" opacity=".7"/><circle cx="840" cy="36" r="1" fill="#e0e3ff" opacity=".7"/><circle cx="624" cy="211" r="1" fill="#e0e3ff" opacity=".7"/><circle cx="579" cy="193" r="1" fill="#e0e3ff" opacity=".7"/><circle cx="201" cy="153" r="1" fill="#e0e3ff" opacity=".7"/><circle cx="354" cy="68" r="1" fill="#e0e3ff" opacity=".7"/><circle cx="914" cy="209" r="1" fill="#e0e3ff" opacity=".7"/><circle cx="397" cy="87" r="1" fill="#e0e3ff" opacity=".7"/><circle cx="307" cy="186" r="2" fill="#e0e3ff" opacity=".7"/><circle cx="651" cy="365" r="1" fill="#e0e3ff" opacity=".7"/><circle cx="276" cy="188" r="2" fill="#e0e3ff" opacity=".7"/><circle cx="71" cy="45" r="2" fill="#e0e3ff" opacity=".7"/><circle cx="524" cy="251" r="2" fill="#e0e3ff" opacity=".7"/><circle cx="812" cy="367" r="2" fill="#e0e3ff" opacity=".7"/><circle cx="383" cy="265" r="1" fill="#e0e3ff" opacity=".7"/><circle cx="641" cy="163" r="2" fill="#e0e3ff" opacity=".7"/><circle cx="920" cy="197" r="2" fill="#e0e3ff" opacity=".7"/><circle cx="464" cy="237" r="1" fill="#e0e3ff" opacity=".7"/><circle cx="791" cy="0" r="1" fill="#e0e3ff" opacity=".7"/><circle cx="205" cy="373" r="2" fill="#e0e3ff" opacity=".7"/><circle cx="800" cy="95" r="42" fill="#d7dcff"/><circle cx="817" cy="83" r="39" fill="#19264c"/><polygon points="-100,800 -100,170 -10,105 80,96 170,137 260,117 350,193 440,125 530,151 620,155 710,189 800,175 890,131 980,102 1070,90 1160,154 1100,800" fill="#374572" opacity="0.25"/><polygon points="-100,800 -100,226 -10,216 80,267 170,272 260,231 350,250 440,216 530,170 620,279 710,170 800,216 890,286 980,289 1070,236 1160,262 1100,800" fill="#374572" opacity="0.47"/><polygon points="-100,800 -100,265 -10,274 80,339 170,331 260,353 350,333 440,307 530,325 620,346 710,337 800,324 890,300 980,271 1070,345 1160,269 1100,800" fill="#374572" opacity="0.69"/><path d="M612 168v-50" stroke="#243d3b" stroke-width="7"/><path d="M590 138l22 -58 22 58Z" fill="#101b42" opacity=".85"/><path d="M779 211v-50" stroke="#243d3b" stroke-width="7"/><path d="M757 181l22 -58 22 58Z" fill="#101b42" opacity=".85"/><path d="M544 218v-50" stroke="#243d3b" stroke-width="7"/><path d="M522 188l22 -58 22 58Z" fill="#101b42" opacity=".85"/><path d="M694 676v-50" stroke="#243d3b" stroke-width="7"/><path d="M672 646l22 -58 22 58Z" fill="#101b42" opacity=".85"/><path d="M656 212v-50" stroke="#243d3b" stroke-width="7"/><path d="M634 182l22 -58 22 58Z" fill="#101b42" opacity=".85"/><path d="M883 255v-50" stroke="#243d3b" stroke-width="7"/><path d="M861 225l22 -58 22 58Z" fill="#101b42" opacity=".85"/><path d="M348 740v-50" stroke="#243d3b" stroke-width="7"/><path d="M326 710l22 -58 22 58Z" fill="#101b42" opacity=".85"/><path d="M847 691v-50" stroke="#243d3b" stroke-width="7"/><path d="M825 661l22 -58 22 58Z" fill="#101b42" opacity=".85"/><path d="M797 669v-50" stroke="#243d3b" stroke-width="7"/><path d="M775 639l22 -58 22 58Z" fill="#101b42" opacity=".85"/><path d="M236 772v-50" stroke="#243d3b" stroke-width="7"/><path d="M214 742l22 -58 22 58Z" fill="#101b42" opacity=".85"/><path d="M734 274v-50" stroke="#243d3b" stroke-width="7"/><path d="M712 244l22 -58 22 58Z" fill="#101b42" opacity=".85"/><path d="M760 728v-50" stroke="#243d3b" stroke-width="7"/><path d="M738 698l22 -58 22 58Z" fill="#101b42" opacity=".85"/><path d="M961 199v-50" stroke="#243d3b" stroke-width="7"/><path d="M939 169l22 -58 22 58Z" fill="#101b42" opacity=".85"/><path d="M115 196v-50" stroke="#243d3b" stroke-width="7"/><path d="M93 166l22 -58 22 58Z" fill="#101b42" opacity=".85"/><path d="M62 250v-50" stroke="#243d3b" stroke-width="7"/><path d="M40 220l22 -58 22 58Z" fill="#101b42" opacity=".85"/><path d="M743 673v-50" stroke="#243d3b" stroke-width="7"/><path d="M721 643l22 -58 22 58Z" fill="#101b42" opacity=".85"/><path d="M839 220v-50" stroke="#243d3b" stroke-width="7"/><path d="M817 190l22 -58 22 58Z" fill="#101b42" opacity=".85"/><path d="M221 743v-50" stroke="#243d3b" stroke-width="7"/><path d="M199 713l22 -58 22 58Z" fill="#101b42" opacity=".85"/><path d="M104 219v-50" stroke="#243d3b" stroke-width="7"/><path d="M82 189l22 -58 22 58Z" fill="#101b42" opacity=".85"/><path d="M719 706v-50" stroke="#243d3b" stroke-width="7"/><path d="M697 676l22 -58 22 58Z" fill="#101b42" opacity=".85"/><path d="M421 259v-50" stroke="#243d3b" stroke-width="7"/><path d="M399 229l22 -58 22 58Z" fill="#101b42" opacity=".85"/><path d="M293 239v-50" stroke="#243d3b" stroke-width="7"/><path d="M271 209l22 -58 22 58Z" fill="#101b42" opacity=".85"/><path d="M405 772v-50" stroke="#243d3b" stroke-width="7"/><path d="M383 742l22 -58 22 58Z" fill="#101b42" opacity=".85"/><path d="M473 186v-50" stroke="#243d3b" stroke-width="7"/><path d="M451 156l22 -58 22 58Z" fill="#101b42" opacity=".85"/><path d="M544 194v-50" stroke="#243d3b" stroke-width="7"/><path d="M522 164l22 -58 22 58Z" fill="#101b42" opacity=".85"/><path d="M862 671v-50" stroke="#243d3b" stroke-width="7"/><path d="M840 641l22 -58 22 58Z" fill="#101b42" opacity=".85"/><path d="M175 198v-50" stroke="#243d3b" stroke-width="7"/><path d="M153 168l22 -58 22 58Z" fill="#101b42" opacity=".85"/><path d="M778 737v-50" stroke="#243d3b" stroke-width="7"/><path d="M756 707l22 -58 22 58Z" fill="#101b42" opacity=".85"/><path d="M316 673v-50" stroke="#243d3b" stroke-width="7"/><path d="M294 643l22 -58 22 58Z" fill="#101b42" opacity=".85"/><path d="M311 706v-50" stroke="#243d3b" stroke-width="7"/><path d="M289 676l22 -58 22 58Z" fill="#101b42" opacity=".85"/><path d="M610 205v-50" stroke="#243d3b" stroke-width="7"/><path d="M588 175l22 -58 22 58Z" fill="#101b42" opacity=".85"/><path d="M602 205v-50" stroke="#243d3b" stroke-width="7"/><path d="M580 175l22 -58 22 58Z" fill="#101b42" opacity=".85"/><path d="M873 201v-50" stroke="#243d3b" stroke-width="7"/><path d="M851 171l22 -58 22 58Z" fill="#101b42" opacity=".85"/><path d="M760 169v-50" stroke="#243d3b" stroke-width="7"/><path d="M738 139l22 -58 22 58Z" fill="#101b42" opacity=".85"/><path d="M395 217v-50" stroke="#243d3b" stroke-width="7"/><path d="M373 187l22 -58 22 58Z" fill="#101b42" opacity=".85"/><path d="M631 697v-50" stroke="#243d3b" stroke-width="7"/><path d="M609 667l22 -58 22 58Z" fill="#101b42" opacity=".85"/><path d="M698 197v-50" stroke="#243d3b" stroke-width="7"/><path d="M676 167l22 -58 22 58Z" fill="#101b42" opacity=".85"/><path d="M153 733v-50" stroke="#243d3b" stroke-width="7"/><path d="M131 703l22 -58 22 58Z" fill="#101b42" opacity=".85"/><path d="M254 719v-50" stroke="#243d3b" stroke-width="7"/><path d="M232 689l22 -58 22 58Z" fill="#101b42" opacity=".85"/><path d="M795 262v-50" stroke="#243d3b" stroke-width="7"/><path d="M773 232l22 -58 22 58Z" fill="#101b42" opacity=".85"/><path d="M37 699v-50" stroke="#243d3b" stroke-width="7"/><path d="M15 669l22 -58 22 58Z" fill="#101b42" opacity=".85"/><path d="M265 761v-50" stroke="#243d3b" stroke-width="7"/><path d="M243 731l22 -58 22 58Z" fill="#101b42" opacity=".85"/><g transform="translate(364,100)" filter="url(#shadow)"><path d="M-42 70V-10L0 -35 42 -10V70Z" fill="#b3b8ff" opacity=".75"/><path d="M-55 -10L0 -50 55 -10Z" fill="#101b42"/><path d="M-13 70V25Q0 4 13 25V70" fill="#101b42"/><path d="M-32 -10V-28M32 -10V-28" stroke="#b3b8ff" stroke-width="12"/></g></svg>